<svg xmlns="http://www.w3.org/2000/svg" width="14" height="12" viewBox="0 0 14 12"><path fill="#FFFFFF" fill-rule="evenodd" d="M6.38181372,8.99121312 L6.38181372,8.78227249 C6.81817705,8.44800926 7.149995,7.90476362 7.33181306,7.31968807 C7.89544903,7.31968807 8.02272166,6.27498491 8.02272166,6.10787419 C8.02272166,5.94072169 7.9727217,5.39747604 7.72726733,5.31389979 C8.6363576,2.38873095 5.90908678,1.13508716 3.54545207,2.63945971 C2.55454367,2.63945971 2.23181662,3.97663796 2.59549819,5.31389979 C2.34999836,5.31389979 2.30004385,5.94072169 2.30004385,6.10787419 C2.30004385,6.27498491 2.43181648,7.31968807 2.986407,7.31968807 C3.1681796,7.90476362 3.65908835,8.40622114 4.09090623,8.78227249 L4.09090623,8.99121312 C4.09090623,9.32555992 3.94549724,9.95238181 2.11363489,10.1613224 C0,10.4120512 0,12 0,12 L9.99999301,12 C9.99999301,12 10.0181748,10.3702631 8.19999427,10.1613224 C6.36817737,9.91059368 6.38181372,9.32555992 6.38181372,8.99121312 Z M10.5978129,6.99890326 L10.5978129,6.66549438 C10.9337789,6.66549438 12.1585662,6.62381306 13.3195626,6.33204382 C12.626367,5.62346137 11.9587303,5.33165045 11.9587303,2.49736236 C11.9587303,-0.920547584 8.55654313,0.163208423 8.55654313,0.163208423 C7.78250304,0.163208423 7.29769137,0.496658985 7,0.913472188 C7.7612819,1.03851615 8.42891859,1.41364803 8.87549818,1.95550519 C9.44106926,2.70576896 9.61972661,3.70612064 9.39428919,4.78983497 C9.57715674,5.16496685 9.59842041,5.58178005 9.59842041,5.79018666 C9.59842041,6.20699986 9.43256379,7.20730986 8.77764277,7.62412306 C8.61182868,8.04093627 8.38639125,8.41610983 8.10571081,8.74956039 C8.20777643,8.83292303 8.46294046,8.91628567 9.0285966,8.99964831 C9.91312272,9.12469227 10.4914945,9.49978248 10.8657351,10 L14,10 C14,10 14,8.66615607 12.2308627,8.33274719 C10.5340219,7.99929663 10.5978129,7.3323955 10.5978129,6.99890326 Z"></path></svg>